Coordinates
nRows=11
nColumns=24

# SIMM Motion File Header:
name Coordinates
datacolumns 24
datarows 11
otherdata 1
range 0.83000000000000007000 0.85000000000000009000
endheader
time	pelvis_tx	pelvis_ty	pelvis_tz	pelvis_tilt	pelvis_list	pelvis_rotation	hip_flexion_r	hip_adduction_r	hip_rotation_r	knee_angle_r	ankle_angle_r	subtalar_angle_r	mtp_angle_r	hip_flexion_l	hip_adduction_l	hip_rotation_l	knee_angle_l	ankle_angle_l	subtalar_angle_l	mtp_angle_l	lumbar_extension	lumbar_bending	lumbar_rotation
      0.83000000000000007000	      0.60514846468851402000	      1.02186879023724120000	      0.02392580843003480300	      4.62419310158821690000	     -1.00696850107961120000	      3.46576016989599810000	     14.40289685496072100000	      0.39961156303212264000	     -7.15220439639546510000	    -23.03708106419442100000	      4.20125759742380910000	      0.00795275255142114180	      0.05862421728113865300	     -1.18758834832592800000	     -4.11104382637200240000	     -1.13928274266253290000	    -59.68446185357083800000	     -5.76185270869466580000	     -0.00379889603298288030	     -0.09007361124694519800	    -15.08803254931145700000	      4.45088799303660210000	     -5.24714266574104290000
      0.83001023000000007000	      0.60514821312757228000	      1.02187056509692710000	      0.02392805588670972700	      4.62422577603875330000	     -1.00719327283863210000	      3.46573145538269940000	     14.40189421457672800000	      0.40007712486653341000	     -7.15226120818217840000	    -23.03660847810146700000	      4.20168928752187560000	      0.00795467723842301950	      0.05862749451535369200	     -1.18576883236975550000	     -4.11168352840112220000	     -1.13993164805729870000	    -59.68697944904683100000	     -5.76232060421808790000	     -0.00379929890316462860	     -0.09007470055476790600	    -15.08803168609356000000	      4.45108005230933210000	     -5.24679176431150740000
      0.83157766999999994000	      0.60510842113124463000	      1.02214379726393910000	      0.02427109555574121600	      4.62931015533731750000	     -1.04114272475031180000	      3.46127092393205600000	     14.24762027045654700000	      0.46998593728242316000	     -7.16230421163704990000	    -22.96280181168280200000	      4.26226009734620790000	      0.04114492445257184100	      0.07149753617004193900	     -0.90788103701987011000	     -4.20886995656594550000	     -1.23913018699632580000	    -60.06869366227708400000	     -5.82914258678353110000	     -0.00975201253072408710	     -0.09315406338520249000	    -15.08807799200135400000	      4.47987482537480640000	     -5.19295693865927800000
      0.83407766999999966000	      0.60504004330446048000	      1.02258355246960720000	      0.02481360691342036600	      4.63724002545668680000	     -1.09331580657059830000	      3.45378493813031810000	     13.99969473103839800000	      0.57636046180945222000	     -7.18262673145404310000	    -22.84033855307545800000	      4.34879263632670730000	      0.20869963903974717000	      0.11840560300162560000	     -0.46781567503294508000	     -4.36051666831825900000	     -1.39632921423055740000	    -60.66102572228684400000	     -5.91614070905395110000	     -0.04055253074674472500	     -0.10831908399073914000	    -15.08829525995267300000	      4.52312852845769960000	     -5.10672548369018920000
      0.83657766999999938000	      0.60496614591721010000	      1.02302708093874960000	      0.02535233617657766200	      4.64475065456700520000	     -1.14304151921000360000	      3.44542228721207520000	     13.75005967899626000000	      0.67799703136557365000	     -7.20517085979777420000	    -22.71312456456759700000	      4.43835183806323740000	      0.47001924656247279000	      0.16491929554433502000	     -0.03162103215199250200	     -4.50807969623689340000	     -1.55209441455114150000	    -61.23297389480684000000	     -5.97930322863464790000	     -0.08900693669400039400	     -0.13358860241885337000	    -15.08844761909175400000	      4.56283934369963530000	     -5.01969461225597960000
      0.83907766999999911000	      0.60488728825196492000	      1.02347446594772170000	      0.02588948686596838400	      4.65220406811438370000	     -1.19039336444182300000	      3.43565476359399200000	     13.49855131319302300000	      0.77682620657454826000	     -7.22630688853437600000	    -22.58119842490533800000	      4.53380989210049370000	      0.76790975757093638000	      0.19772693478547537000	      0.39998723490423421000	     -4.65177032361237770000	     -1.70616431507688500000	    -61.78421874078131300000	     -6.01948730653115140000	     -0.14373189354649579000	     -0.16504068579364456000	    -15.08894818496973800000	      4.59885409333627050000	     -4.93136389422801360000
      0.84025000000000016000	      0.60484873172988496000	      1.02368575708007700000	      0.02614135144703190100	      4.65582693090171770000	     -1.21182664844158490000	      3.43047152759951190000	     13.37983212427803200000	      0.82271941920295633000	     -7.23484920808795010000	    -22.51750584026654100000	      4.57862896747386560000	      0.90492019926770884000	      0.20953531861875854000	      0.60056420758624407000	     -4.71789848273348240000	     -1.77772698626207080000	    -62.03548231138586300000	     -6.03110017943331480000	     -0.16854960007764536000	     -0.18014866760293557000	    -15.08947173700434000000	      4.61447182628088550000	     -4.88937509067566010000
      0.84274999999999989000	      0.60476346972421702000	      1.02413974236482310000	      0.02667810086187184100	      4.66408029950067250000	     -1.25607685273690860000	      3.41803256572340390000	     13.12470278748493300000	      0.91978518618161487000	     -7.25010186347324300000	    -22.37774629976447500000	      4.67548825974070770000	      1.19198137338197310000	      0.22949075879216038000	      1.02388704577782090000	     -4.85616728539067920000	     -1.92980897712477220000	    -62.55575181970276300000	     -6.03855732095020060000	     -0.23877017408273532000	     -0.22158379796864591000	    -15.09146347494327900000	      4.64534060879438380000	     -4.79852543771594050000
      0.84524999999999961000	      0.60467439089966490000	      1.02459898430515370000	      0.02721435601360026200	      4.67350836956721680000	     -1.29888376650674500000	      3.40383096276843490000	     12.86627631456906500000	      1.01664666302638640000	     -7.26119605473913320000	    -22.23188816347491000000	      4.76792069400163940000	      1.45010541137317680000	      0.25115318551683319000	      1.44067161662774400000	     -4.99121121106786700000	     -2.08065932003653180000	    -63.05481301199731100000	     -6.02363568947275670000	     -0.33036007912938536000	     -0.27358931746866605000	    -15.09511130232798100000	      4.67355753422827740000	     -4.70592899094217730000
      0.84774999999999934000	      0.60458156693407061000	      1.02506366509070610000	      0.02774968262019313100	      4.68428815858789440000	     -1.33974710244519920000	      3.38808707430558980000	     12.60437016592254400000	      1.11296571056565360000	     -7.26777330233729480000	    -22.07981047084129500000	      4.85058368597801960000	      1.65053525343856330000	      0.28078620262182580000	      1.85076834836186670000	     -5.12226592974716240000	     -2.22866155787443890000	    -63.53247762181452200000	     -5.98996038280633860000	     -0.42847591125796031000	     -0.32782103333785922000	    -15.10062598620175400000	      4.69865073049775630000	     -4.61198952343595800000
      0.85000000000000009000	      0.60449467010190328000	      1.02548550522031490000	      0.02823025605851991700	      4.69464385110764760000	     -1.37408270831762190000	      3.37260484362392580000	     12.36644205360739500000	      1.19827489614871060000	     -7.26942455280139120000	    -21.93826774826402800000	      4.91708468612291410000	      1.76577414891428240000	      0.31277698343064192000	      2.21476437360633320000	     -5.23565359670654210000	     -2.35821216802784360000	    -63.94399933547109800000	     -5.94733640749245570000	     -0.51000488220627538000	     -0.37060489616023978000	    -15.10666815745862500000	      4.71772316146335240000	     -4.52658018508589330000
